<?xml version="1.0" standalone="no"?>
<!DOCTYPE svg PUBLIC "-//W3C//DTD SVG 20010904//EN"
 "http://www.w3.org/TR/2001/REC-SVG-20010904/DTD/svg10.dtd">
<svg version="1.0" xmlns="http://www.w3.org/2000/svg"
 width="900.000000pt" height="900.000000pt" viewBox="0 0 900.000000 900.000000"
 preserveAspectRatio="xMidYMid meet">
<metadata>
Created by potrace 1.10, written by Peter Selinger 2001-2011
</metadata>
<g transform="translate(0.000000,900.000000) scale(0.100000,-0.100000)"
fill="#000000" stroke="none">
<path d="M1835 8984 c-7 -11 -33 -19 -80 -24 -68 -7 -133 -20 -205 -43 -19 -5
-51 -14 -70 -18 -44 -9 -178 -58 -250 -91 -30 -14 -62 -28 -70 -32 -8 -3 -31
-16 -50 -27 -19 -12 -53 -32 -75 -43 -40 -22 -153 -95 -177 -115 -7 -6 -40
-32 -72 -58 -90 -73 -245 -229 -319 -320 -98 -122 -162 -223 -243 -383 -51
-101 -114 -267 -114 -301 0 -13 -7 -33 -15 -43 -8 -11 -15 -34 -15 -52 0 -18
-5 -45 -11 -61 -6 -15 -19 -84 -30 -152 -34 -220 -22 -556 26 -736 20 -74 35
-137 41 -165 6 -28 57 -159 80 -203 8 -16 14 -35 14 -42 0 -8 14 -37 30 -65
17 -28 30 -55 30 -59 0 -5 7 -14 15 -21 8 -7 15 -18 15 -26 0 -20 117 -191
199 -289 118 -143 213 -232 360 -342 31 -23 61 -46 66 -51 6 -4 17 -11 25 -15
24 -12 53 -30 86 -54 17 -12 42 -27 55 -33 13 -5 31 -14 39 -19 36 -23 210
-101 225 -101 9 0 26 -5 38 -12 12 -6 35 -15 52 -19 16 -4 68 -19 115 -33 47
-14 101 -26 120 -26 19 0 55 -8 80 -16 68 -25 568 -26 658 -1 35 9 75 17 89
17 28 0 97 19 208 57 39 14 79 27 90 30 28 7 195 81 235 103 8 5 35 19 60 32
25 12 70 39 102 60 60 40 83 41 99 4 5 -11 18 -34 29 -51 11 -16 23 -37 26
-45 3 -8 12 -28 19 -45 8 -16 25 -55 39 -86 86 -191 113 -405 81 -629 -9 -63
-21 -128 -26 -145 -6 -16 -14 -44 -19 -62 -9 -37 -110 -247 -153 -315 -30 -50
-55 -60 -77 -33 -7 8 -16 15 -21 15 -4 0 -27 12 -51 28 -71 45 -79 49 -183
102 -56 27 -106 50 -112 50 -6 0 -24 6 -40 14 -58 29 -199 76 -229 76 -12 0
-38 7 -57 15 -20 8 -51 15 -70 15 -18 0 -60 7 -92 16 -85 22 -524 22 -605 0
-30 -9 -73 -16 -95 -16 -22 0 -53 -7 -69 -15 -15 -8 -39 -15 -52 -15 -23 0
-213 -59 -251 -78 -10 -5 -34 -16 -53 -25 -45 -19 -120 -55 -142 -67 -10 -6
-26 -14 -35 -19 -10 -6 -47 -28 -83 -51 -36 -22 -74 -46 -85 -53 -28 -17 -152
-114 -173 -136 -9 -10 -34 -30 -55 -46 -22 -16 -80 -76 -130 -134 -50 -58 -94
-108 -97 -111 -12 -12 -134 -189 -143 -210 -4 -8 -17 -31 -28 -50 -12 -19 -30
-53 -41 -75 -11 -22 -24 -47 -29 -55 -5 -8 -12 -22 -15 -30 -3 -8 -19 -46 -34
-85 -50 -123 -110 -343 -126 -465 -11 -83 -9 -545 3 -630 6 -41 16 -95 22
-120 46 -169 77 -272 89 -298 5 -9 17 -35 27 -57 9 -22 24 -52 31 -67 8 -14
14 -31 14 -36 0 -6 20 -45 45 -86 25 -42 45 -79 45 -81 0 -5 81 -125 99 -147
6 -7 42 -51 80 -98 88 -108 223 -238 326 -316 83 -63 159 -115 185 -127 8 -4
38 -21 65 -37 60 -36 123 -66 230 -109 44 -18 95 -39 113 -47 18 -8 43 -14 57
-14 13 0 36 -6 52 -14 15 -8 62 -21 103 -30 303 -62 621 -64 870 -4 25 6 65
14 90 19 50 9 188 52 238 74 17 8 47 21 65 29 29 12 147 70 215 105 116 60
318 216 443 340 152 152 287 346 385 551 63 132 78 170 113 285 40 128 51 173
51 206 0 19 8 54 17 79 25 68 25 567 0 658 -9 35 -17 76 -17 90 0 24 -11 67
-42 157 -5 17 -14 46 -18 65 -12 49 -40 120 -91 225 -16 33 -29 63 -29 68 0 4
-31 59 -70 122 -71 118 -76 138 -36 156 11 5 48 25 81 44 33 19 67 37 75 41
25 9 84 36 112 50 14 8 33 14 41 14 8 0 28 7 43 15 16 8 40 15 54 15 14 0 57
7 95 15 80 17 298 20 341 5 16 -6 58 -14 94 -19 80 -11 142 -33 310 -110 78
-36 180 -103 180 -119 0 -9 -19 -45 -42 -82 -24 -36 -48 -74 -55 -85 -21 -34
-109 -218 -128 -265 -9 -25 -21 -56 -26 -68 -23 -60 -49 -143 -49 -159 0 -10
-7 -36 -15 -58 -8 -22 -14 -56 -15 -75 0 -20 -7 -63 -16 -95 -23 -86 -23 -514
0 -600 9 -32 16 -75 16 -94 0 -32 17 -103 42 -176 5 -16 13 -43 18 -60 23 -83
57 -168 125 -305 130 -264 342 -518 595 -709 63 -48 122 -90 130 -94 8 -4 29
-16 45 -27 63 -40 214 -120 228 -120 6 0 37 -13 71 -28 58 -27 109 -44 229
-76 28 -8 72 -20 97 -27 25 -6 79 -16 120 -22 91 -12 544 -15 620 -4 91 13
251 51 335 79 17 5 44 13 60 17 104 27 467 223 520 281 10 11 22 20 27 20 26
0 273 238 367 353 46 57 111 148 158 223 10 17 76 140 101 191 14 29 38 84 57
133 9 25 23 60 31 78 8 18 14 45 14 60 0 15 7 36 15 46 8 11 15 33 15 50 0 16
6 52 14 80 31 111 39 179 44 376 4 202 -8 345 -40 475 -5 22 -13 58 -17 80
-22 116 -112 341 -210 524 -24 44 -123 195 -135 206 -6 6 -33 38 -59 73 -54
69 -197 216 -273 277 -70 58 -166 130 -184 139 -17 8 -36 19 -95 57 -37 23
-141 75 -255 127 -50 22 -104 41 -195 67 -33 10 -77 24 -98 31 -20 8 -56 14
-80 14 -23 0 -62 8 -87 17 -68 25 -579 26 -662 0 -31 -9 -70 -17 -87 -17 -18
0 -48 -7 -68 -15 -19 -8 -45 -15 -57 -15 -11 0 -52 -12 -91 -26 -38 -14 -79
-28 -90 -31 -49 -13 -252 -114 -369 -184 -51 -31 -85 -45 -93 -40 -14 8 -33
35 -52 78 -5 11 -15 24 -20 28 -6 3 -11 14 -11 24 0 10 -7 24 -15 31 -8 7 -15
19 -15 26 0 8 -13 43 -30 77 -16 35 -30 69 -30 74 0 6 -7 24 -15 39 -8 16 -15
43 -15 59 -1 17 -7 57 -15 90 -20 80 -19 292 0 365 8 30 15 72 15 92 0 21 6
52 14 70 8 18 29 69 47 113 67 161 140 285 167 285 10 0 47 -20 82 -45 60 -43
261 -146 345 -178 141 -53 192 -69 290 -91 297 -65 637 -67 915 -5 25 6 63 14
85 19 45 9 103 28 185 60 30 12 67 25 81 30 14 4 34 12 45 18 10 6 40 20 66
32 27 12 50 26 54 31 3 5 11 9 19 9 8 0 34 14 58 30 25 17 47 30 50 30 17 0
199 133 262 191 22 21 52 47 67 59 37 29 224 246 273 316 51 74 109 173 158
268 5 12 14 28 19 36 4 8 11 22 14 30 3 8 19 47 34 85 60 148 120 372 120 447
0 45 17 91 30 83 7 -4 10 75 10 232 0 227 -1 239 -20 251 -16 10 -20 23 -20
63 0 56 -35 214 -72 324 -5 17 -13 44 -17 60 -8 31 -27 74 -101 225 -106 220
-203 353 -396 546 -126 126 -244 219 -376 299 -65 39 -202 110 -258 133 -19 8
-48 20 -65 27 -16 7 -55 21 -85 30 -30 10 -73 24 -95 31 -23 8 -51 14 -64 14
-13 0 -44 6 -70 14 -134 42 -514 62 -681 35 -167 -26 -205 -34 -320 -66 -141
-40 -319 -112 -400 -161 -19 -12 -46 -26 -59 -32 -30 -13 -193 -119 -206 -134
-5 -6 -46 -40 -90 -76 -44 -35 -103 -87 -130 -115 -86 -86 -235 -264 -235
-280 0 -4 -13 -24 -30 -45 -16 -21 -30 -40 -30 -43 0 -4 -12 -23 -26 -44 -37
-55 -140 -268 -162 -338 -11 -33 -27 -87 -37 -120 -10 -33 -24 -78 -31 -100
-8 -23 -14 -56 -14 -75 0 -19 -8 -55 -16 -80 -14 -37 -17 -94 -18 -325 -1
-318 2 -338 79 -610 10 -33 24 -75 31 -93 8 -18 14 -38 14 -45 0 -6 14 -41 31
-77 17 -36 39 -81 48 -100 9 -19 44 -83 79 -142 34 -59 62 -116 62 -126 0 -19
-22 -33 -150 -98 -92 -46 -176 -82 -207 -88 -18 -4 -35 -12 -38 -17 -4 -5 -20
-9 -37 -9 -16 0 -57 -7 -90 -16 -100 -26 -393 -10 -503 28 -16 5 -43 13 -60
17 -16 4 -69 27 -116 49 -47 23 -88 42 -92 42 -17 0 -157 93 -157 104 0 7 19
43 43 79 56 85 197 370 197 398 0 6 6 25 13 42 38 88 61 180 77 297 6 41 16
90 22 109 17 55 13 493 -6 566 -9 32 -16 72 -16 88 0 35 -27 150 -46 195 -8
18 -14 41 -14 52 0 10 -4 21 -9 24 -5 3 -14 27 -20 53 -32 124 -220 466 -313
565 -12 14 -43 50 -68 79 -65 77 -191 199 -267 257 -74 57 -159 119 -173 125
-8 4 -28 16 -45 26 -110 71 -303 160 -420 195 -166 49 -280 76 -322 76 -53 0
-83 10 -83 26 0 12 -42 14 -238 14 -208 0 -238 -2 -247 -16z m529 -190 c27 -8
64 -14 82 -14 18 0 45 -5 61 -11 15 -7 46 -15 68 -19 120 -23 378 -139 519
-233 43 -28 88 -59 101 -67 154 -102 389 -357 500 -546 75 -127 170 -339 191
-429 3 -11 11 -42 19 -70 35 -127 65 -356 65 -499 0 -72 -14 -200 -32 -296 -6
-30 -14 -75 -18 -100 -12 -63 -30 -129 -46 -168 -8 -18 -14 -40 -14 -48 0 -8
-20 -57 -45 -108 -25 -52 -45 -96 -45 -99 0 -11 -122 -213 -142 -234 -12 -13
-26 -19 -36 -15 -38 14 -236 160 -391 287 -41 33 -89 72 -109 87 -19 15 -53
45 -76 65 -22 21 -77 69 -121 107 -97 84 -150 134 -318 297 l-129 125 13 57
c9 45 10 69 1 108 -18 75 -15 110 10 136 12 13 26 23 31 23 5 0 26 15 46 33
38 33 46 40 161 136 142 120 336 331 407 446 82 131 137 252 147 317 5 43 -8
98 -26 110 -41 25 -157 -20 -276 -109 -91 -68 -267 -243 -348 -345 -32 -40
-60 -75 -63 -78 -8 -7 -32 -41 -123 -176 -113 -167 -128 -184 -163 -184 -16 1
-41 7 -55 15 -17 10 -58 14 -127 15 -97 0 -137 -8 -193 -41 -8 -5 -24 -13 -35
-18 -35 -16 -125 -126 -125 -152 0 -7 -8 -21 -17 -31 -14 -15 -17 -40 -17
-126 -1 -59 3 -119 7 -135 8 -30 -4 -45 -74 -97 -129 -96 -358 -308 -484 -449
-81 -91 -165 -234 -239 -404 -22 -51 -21 -140 1 -162 22 -23 93 -15 159 17
113 55 325 242 454 402 30 38 70 85 87 105 18 20 33 40 33 44 0 5 20 35 45 67
25 32 45 61 45 64 0 12 143 196 152 196 5 0 19 -6 31 -14 12 -8 54 -22 94 -32
62 -16 79 -16 120 -6 27 7 56 10 65 7 14 -6 325 -332 408 -428 19 -22 57 -66
84 -96 26 -31 58 -67 70 -81 12 -14 37 -45 56 -70 18 -25 38 -49 44 -55 12
-11 80 -97 144 -183 109 -144 162 -222 162 -236 0 -14 -47 -55 -80 -70 -8 -3
-37 -20 -65 -36 -57 -35 -189 -99 -255 -125 -25 -9 -56 -22 -70 -27 -14 -6
-41 -14 -60 -18 -19 -5 -48 -13 -65 -18 -40 -14 -135 -32 -217 -42 -38 -5 -73
-12 -79 -15 -6 -4 -88 -7 -182 -6 -161 0 -228 6 -352 33 -27 6 -70 14 -95 19
-99 17 -265 76 -385 137 -155 77 -206 109 -335 208 -178 136 -398 388 -480
549 -6 11 -19 34 -29 51 -35 57 -136 309 -151 374 -12 54 -30 130 -45 185 -30
111 -26 557 5 690 23 99 42 170 52 195 6 14 14 39 19 55 12 46 38 113 65 170
13 29 24 57 24 62 0 6 7 16 15 23 8 7 15 19 15 26 0 8 20 43 45 80 25 36 45
67 45 70 0 11 98 139 150 197 94 104 211 213 302 281 48 36 90 66 93 66 3 0
24 14 47 30 22 17 45 30 49 30 4 0 30 13 56 28 61 35 181 86 313 131 83 29
139 43 204 51 38 5 76 12 85 16 51 24 481 22 565 -2z m4892 -30 c18 -8 46 -14
61 -14 25 0 68 -11 158 -42 17 -5 41 -12 55 -15 24 -5 38 -10 130 -51 136 -61
191 -88 243 -123 32 -22 61 -39 64 -39 9 0 166 -122 212 -164 211 -197 331
-356 443 -586 37 -74 68 -144 71 -155 7 -26 27 -81 44 -122 7 -17 13 -41 13
-52 0 -12 7 -38 15 -58 8 -19 15 -54 15 -77 1 -22 7 -59 15 -81 11 -30 15 -96
15 -275 0 -235 -1 -244 -42 -420 -6 -25 -14 -63 -18 -85 -9 -46 -26 -97 -46
-138 -8 -16 -14 -35 -14 -44 0 -8 -6 -27 -14 -41 -7 -15 -30 -61 -50 -102 -20
-41 -42 -84 -49 -95 -6 -11 -25 -42 -41 -70 -94 -157 -256 -342 -416 -476 -55
-46 -172 -129 -200 -142 -8 -4 -28 -16 -45 -27 -88 -57 -315 -156 -415 -181
-171 -42 -218 -51 -305 -62 -266 -31 -624 4 -803 79 -18 8 -42 14 -52 14 -27
0 -234 96 -325 152 -16 10 -37 21 -45 24 -8 4 -34 22 -57 41 -50 40 -51 36 34
158 58 85 306 401 342 436 9 9 27 29 41 45 171 199 177 206 406 443 l112 115
66 -13 c54 -11 78 -11 132 0 74 15 86 11 122 -42 110 -161 381 -443 541 -562
119 -89 115 -86 231 -144 86 -43 103 -48 177 -51 76 -4 82 -3 93 18 39 74 -60
247 -252 440 -171 172 -238 227 -490 396 -53 36 -110 78 -127 93 -26 25 -29
32 -22 58 5 17 14 40 21 52 16 30 8 225 -11 271 -38 92 -104 159 -207 212 -45
23 -178 33 -247 20 -27 -6 -55 -7 -61 -4 -13 9 -113 128 -135 162 -34 52 -327
355 -399 411 -86 67 -168 120 -250 160 -147 72 -166 79 -230 79 -51 0 -61 -3
-71 -22 -28 -51 7 -148 99 -278 55 -76 262 -286 347 -350 32 -25 72 -57 89
-72 17 -16 34 -28 39 -28 5 0 35 -20 67 -45 32 -25 61 -45 64 -45 4 0 47 -30
96 -67 89 -67 100 -84 81 -121 -35 -66 -50 -177 -31 -227 14 -38 3 -54 -140
-190 -223 -213 -264 -250 -350 -324 -47 -40 -96 -82 -110 -94 -14 -13 -45 -38
-70 -57 -25 -18 -49 -38 -55 -44 -12 -13 -103 -85 -182 -144 -171 -128 -220
-162 -234 -162 -14 0 -69 59 -69 74 0 3 -12 22 -26 43 -14 21 -30 47 -35 58
-5 11 -13 27 -18 35 -5 8 -18 35 -29 60 -80 181 -90 208 -101 261 -4 19 -10
40 -14 46 -10 16 -39 152 -47 223 -4 36 -14 110 -20 165 -11 86 -11 124 5 275
9 96 23 195 31 219 8 25 14 53 14 63 0 11 14 59 30 108 17 49 30 94 30 100 0
18 116 261 150 315 11 17 23 37 27 45 20 44 170 228 258 316 129 129 179 171
296 247 132 86 126 82 209 122 123 59 131 63 230 95 52 17 115 37 140 45 25 8
57 15 72 15 15 0 39 5 55 12 70 29 600 31 669 2z m-5027 -4805 c148 -18 253
-38 341 -64 30 -10 77 -23 103 -31 26 -7 85 -31 130 -52 45 -21 93 -44 107
-50 58 -27 185 -105 217 -134 13 -12 19 -26 15 -36 -17 -45 -265 -378 -318
-427 -6 -5 -26 -30 -44 -55 -19 -25 -41 -52 -49 -61 -9 -9 -27 -29 -41 -45
-171 -199 -177 -206 -406 -443 l-111 -115 -58 13 c-46 11 -73 11 -137 1 l-80
-13 -21 27 c-12 14 -42 52 -67 83 -156 196 -370 413 -495 504 -44 32 -88 65
-98 73 -10 7 -57 33 -105 56 -48 24 -99 49 -114 56 -33 18 -169 19 -186 2 -44
-44 31 -211 158 -352 165 -183 354 -343 580 -492 133 -87 150 -103 150 -138
-1 -17 -7 -42 -15 -56 -21 -37 -20 -211 2 -270 9 -25 22 -52 30 -61 7 -8 13
-20 13 -26 0 -21 105 -105 159 -129 65 -29 174 -40 250 -26 30 5 60 8 65 6 6
-3 38 -39 71 -80 105 -132 207 -246 306 -344 131 -129 186 -180 194 -180 4 0
33 -20 65 -45 32 -25 61 -45 64 -45 3 0 28 -14 56 -30 28 -17 57 -30 63 -30 7
0 18 -5 24 -11 36 -36 196 -62 233 -39 22 14 19 109 -6 157 -37 73 -155 224
-247 315 -90 90 -284 258 -310 268 -8 3 -40 24 -73 48 -32 23 -101 72 -151
109 -70 50 -93 72 -93 89 0 13 4 25 8 28 5 3 17 41 27 85 16 72 17 87 5 137
l-14 56 85 82 c135 130 327 307 419 385 47 40 96 82 110 94 14 13 45 38 70 57
25 18 50 38 55 44 12 13 103 85 182 144 171 128 220 162 234 162 15 0 57 -45
72 -80 4 -8 16 -28 27 -45 26 -41 90 -169 90 -181 0 -6 5 -15 12 -22 12 -12
26 -49 59 -152 11 -36 27 -80 35 -98 8 -18 14 -46 14 -62 0 -16 5 -41 11 -57
27 -71 46 -322 37 -483 -11 -181 -25 -265 -64 -391 -8 -26 -14 -54 -14 -64 0
-19 -53 -154 -107 -272 -62 -136 -215 -354 -337 -481 -79 -83 -213 -194 -318
-264 -123 -82 -121 -81 -208 -123 -151 -73 -223 -99 -375 -138 -33 -8 -80 -20
-105 -27 -70 -18 -311 -31 -460 -25 -171 8 -367 42 -458 81 -18 8 -43 14 -55
14 -13 0 -32 7 -43 15 -10 8 -26 15 -35 15 -8 0 -71 28 -140 63 -232 118 -397
244 -584 448 -78 84 -189 242 -239 338 -15 30 -32 62 -36 70 -33 65 -70 149
-70 161 0 8 -7 24 -15 34 -8 11 -15 30 -15 43 0 12 -6 37 -14 55 -25 61 -46
136 -46 164 0 16 -7 63 -16 104 -22 105 -22 500 1 566 8 24 15 59 15 78 0 18
6 52 14 77 7 24 21 71 31 104 28 96 84 239 116 295 4 8 20 38 34 65 36 71 70
122 182 270 49 66 244 259 319 317 66 50 224 154 257 168 12 6 29 14 37 19 50
31 196 90 285 116 33 10 78 24 100 30 170 53 468 77 654 54z m4895 -30 c16 -5
44 -9 63 -9 63 0 358 -84 458 -130 74 -34 190 -91 209 -103 138 -84 294 -207
391 -308 98 -102 205 -229 205 -242 0 -3 19 -34 43 -69 57 -87 63 -96 88 -148
72 -151 97 -211 124 -305 9 -33 22 -71 27 -85 6 -14 14 -47 18 -75 5 -27 14
-79 21 -115 16 -87 16 -553 -1 -595 -7 -16 -16 -52 -20 -80 -5 -27 -18 -81
-30 -120 -12 -38 -24 -83 -27 -100 -3 -16 -12 -39 -19 -50 -8 -11 -14 -27 -14
-36 0 -21 -122 -261 -154 -304 -14 -18 -26 -36 -26 -40 0 -14 -138 -187 -203
-254 -135 -140 -321 -287 -453 -358 -104 -56 -227 -113 -245 -113 -8 0 -23 -7
-33 -15 -11 -8 -28 -15 -39 -15 -19 0 -84 -19 -157 -46 -19 -7 -63 -15 -98
-18 -35 -3 -72 -10 -82 -16 -26 -14 -438 -14 -510 -1 -30 6 -80 14 -110 17
-30 3 -73 12 -95 19 -22 7 -67 20 -100 30 -163 47 -351 137 -508 243 -132 88
-139 95 -285 241 -113 113 -215 241 -283 356 -56 94 -159 315 -159 340 0 8 -6
29 -14 47 -49 119 -96 400 -96 585 0 142 27 341 65 473 7 25 15 56 18 70 10
52 96 267 127 320 153 256 140 246 230 186 62 -42 238 -173 280 -210 20 -17
53 -44 74 -61 55 -43 120 -96 126 -104 3 -4 41 -37 85 -75 101 -87 256 -230
402 -371 109 -105 114 -112 106 -140 -9 -35 -9 -118 2 -193 7 -47 5 -56 -15
-77 -13 -14 -28 -25 -34 -25 -6 0 -27 -15 -47 -33 -20 -17 -47 -41 -60 -52
-198 -165 -354 -321 -450 -450 -93 -127 -89 -120 -149 -242 -47 -94 -50 -106
-50 -177 0 -64 3 -77 19 -86 64 -34 182 23 359 174 32 27 155 150 207 207 53
57 159 197 241 316 119 173 136 192 169 192 17 0 41 -6 55 -14 37 -21 217 -20
272 2 68 27 126 71 167 126 62 86 76 128 76 236 0 53 -4 108 -8 123 -8 30 -1
39 64 90 83 64 115 91 196 165 303 275 452 467 533 683 16 43 24 122 16 155
-12 46 -80 49 -166 7 -36 -17 -121 -71 -130 -82 -3 -3 -27 -23 -55 -45 -68
-53 -234 -222 -290 -295 -26 -33 -60 -75 -76 -92 -16 -18 -29 -36 -29 -41 0
-5 -20 -35 -45 -67 -25 -32 -45 -61 -45 -65 0 -15 -136 -184 -148 -185 -8 0
-47 11 -88 25 -80 27 -120 30 -173 15 -49 -14 -71 2 -201 142 -112 120 -209
224 -241 257 -8 9 -57 66 -109 126 -52 61 -97 112 -100 115 -3 3 -18 23 -34
45 -16 22 -53 68 -83 102 -29 33 -53 64 -53 68 0 4 -17 28 -37 54 -21 25 -49
62 -62 81 -14 19 -30 39 -38 43 -7 4 -13 13 -13 18 0 6 -11 25 -25 43 -14 18
-25 40 -25 49 0 18 51 58 125 97 11 6 34 19 50 30 28 19 35 22 68 35 6 3 19 9
27 13 8 5 32 16 53 25 20 9 52 23 70 31 17 8 41 16 52 19 11 3 34 10 50 16 33
11 113 33 190 52 162 40 529 57 619 28z"/>
</g>
</svg>
